<?xml version="1.0" encoding="utf-8"?>
<!-- Generator: Adobe Illustrator 19.0.0, SVG Export Plug-In . SVG Version: 6.00 Build 0)  -->
<svg version="1.1" id="Layer_1" xmlns="http://www.w3.org/2000/svg" xmlns:xlink="http://www.w3.org/1999/xlink" x="0px" y="0px"
	 viewBox="0 0 792 612" style="enable-background:new 0 0 792 612;" xml:space="preserve">
<style type="text/css">
	.st0{fill:#FFFFFF;}
	.st1{fill:#75C05D;}
</style>
<path id="XMLID_209_" class="st0" d="M469.2,149.2l29.1,20.9l-16.9,22.6c12.4,13.3,17.2,28.8,17.6,45.9c0.5,19.4-6.1,46.8-31.5,59.2
	c26.3,12.4,33.1,30.9,33.6,50.9c1.1,43.1-31.2,70.6-76.6,71.7c-45.4,1.1-80-25.6-81-67.8l38.4-1c0.5,20.3,19.6,33.2,41.7,32.6
	c22.2-0.6,39.4-13,38.8-34.6s-21.1-30.9-40.4-30.4c-48.8,1.2-80-27.8-81.2-76.7c-1.2-48.8,33.5-80.2,77.3-81.3
	c12.4-0.3,25.1,1,36.1,8L469.2,149.2z M379.2,241.6c0.7,27.3,19.5,43,42,42.4c22.2-0.6,40.2-17.5,39.5-44.5
	c-0.7-27-19.5-43.6-41.7-43.1C396.5,197,378.5,214.3,379.2,241.6z"/>
<path id="XMLID_5_" class="st1" d="M329.5,237.8c-20.9-3.2-42.4,3.3-60.4,19c-32.8,28.5-37.3,72.6-6.2,108.2
	c22.5,25.8,52,33.6,79,24.9c-5.3-9.5-8.7-20.2-9.5-31.6c-16.1,5.5-33.9,1.9-46.9-13c-17.9-20.6-13.8-47.2,5.2-63.7
	c12.6-11,28.7-14.8,43.3-10.2c-3.1-8.4-4.9-17.5-4.9-27C329.2,242.2,329.3,240,329.5,237.8z"/>
<path id="XMLID_2_" class="st0" d="M343.8,357c0,0-1.7-27.5,1.9-41.8c0-1,17.2,16.1,36.3,20.9l-0.2,16.3"/>
</svg>
