<?xml version="1.0" encoding="utf-8"?>
<!-- Generator: Adobe Illustrator 19.0.0, SVG Export Plug-In . SVG Version: 6.00 Build 0)  -->
<svg version="1.1" id="Layer_1" xmlns="http://www.w3.org/2000/svg" xmlns:xlink="http://www.w3.org/1999/xlink" x="0px" y="0px"
	 viewBox="0 0 792 612" style="enable-background:new 0 0 792 612;" xml:space="preserve">
<style type="text/css">
	.st0{fill:#FFFFFF;}
	.st1{fill:#75C15E;}
</style>
<g id="XMLID_1_">
	<path id="XMLID_209_" class="st0" d="M600.6,10.6l63.6,45.6l-36.9,49.5c27.1,29.2,37.7,62.9,38.6,100.4
		c1.1,42.3-13.4,102.4-68.9,129.4c57.6,27,72.5,67.6,73.6,111.3c2.4,94.3-68.3,154.4-167.5,156.9c-99.2,2.5-174.9-56-177.2-148.3
		l83.9-2.1c1.1,44.4,42.8,72.5,91.3,71.3c48.6-1.2,86.1-28.5,84.9-75.7c-1.2-47.2-46.1-67.6-88.4-66.5
		c-106.8,2.7-175-60.9-177.7-167.7C317.1,107.9,393.1,39.4,488.8,37c27-0.7,54.9,2.1,78.9,17.5L600.6,10.6z M403.7,212.6
		c1.5,59.7,42.6,94,91.8,92.8c48.6-1.2,87.9-38.3,86.4-97.3c-1.5-58.9-42.6-95.4-91.2-94.2C441.5,115.2,402.2,153,403.7,212.6z"/>
	<path id="XMLID_5_" class="st1" d="M295,204.4c-45.6-7-92.6,7.2-132.1,41.6c-71.7,62.4-81.5,158.7-13.7,236.7
		c49.1,56.4,113.7,73.5,172.9,54.6c-11.7-20.7-19-44.2-20.9-69.2c-35.2,12.1-74.2,4.2-102.6-28.4c-39.2-45-30.2-103.1,11.5-139.4
		c27.6-24.1,62.8-32.4,94.8-22.3c-6.8-18.4-10.7-38.3-10.7-59.1C294.3,214,294.6,209.2,295,204.4z"/>
	<path id="XMLID_2_" class="st0" d="M326.4,465c0,0-3.7-60.1,4.1-91.3c-0.1-2.2,37.5,35.3,79.4,45.6l-0.4,35.7"/>
</g>
</svg>
