<?xml version="1.0" encoding="utf-8"?>
<!-- Generator: Adobe Illustrator 19.0.0, SVG Export Plug-In . SVG Version: 6.00 Build 0)  -->
<svg version="1.1" id="Layer_1" xmlns="http://www.w3.org/2000/svg" xmlns:xlink="http://www.w3.org/1999/xlink" x="0px" y="0px"
	 viewBox="0 0 792 612" style="enable-background:new 0 0 792 612;" xml:space="preserve">
<style type="text/css">
	.st0{fill:#393A41;}
	.st1{fill:#75C15D;}
</style>
<path id="XMLID_8_" class="st0" d="M737.1,308c0,19.5-29.6,19.5-29.6,0C707.5,288.5,737.1,288.5,737.1,308z"/>
<path id="XMLID_209_" class="st0" d="M203.8,218.4l18.8,13.5l-10.9,14.7c8,8.6,11.2,18.6,11.4,29.7c0.3,12.5-4,30.3-20.4,38.3
	c17.1,8,21.5,20,21.8,33c0.7,27.9-20.2,45.7-49.6,46.5c-29.4,0.7-51.8-16.6-52.5-43.9l24.9-0.6c0.3,13.1,12.7,21.5,27,21.1
	c14.4-0.4,25.5-8.5,25.1-22.4s-13.7-20-26.2-19.7c-31.6,0.8-51.8-18-52.6-49.7c-0.8-31.6,21.7-51.9,50.1-52.6
	c8-0.2,16.3,0.6,23.4,5.2L203.8,218.4z M145.5,278.2c0.4,17.7,12.6,27.8,27.2,27.5c14.4-0.4,26-11.3,25.6-28.8
	c-0.4-17.5-12.6-28.3-27-27.9C156.7,249.3,145,260.5,145.5,278.2z"/>
<path id="XMLID_207_" class="st0" d="M263.6,226.7l1.8,11.7c7.8-12.5,18.3-14.4,28.6-14.4c10.5,0,20.6,4.1,26.1,9.7l-11.3,21.8
	c-5.1-4.3-9.9-6.6-18.1-6.6c-13.2,0-25.3,7-25.3,25.7V328h-25.1V226.7H263.6z"/>
<path id="XMLID_204_" class="st0" d="M409.9,226.7h24V328h-23.6l-1.2-14.8c-5.8,11.9-21.6,17.7-32.9,17.9
	c-30,0.2-52.2-18.3-52.2-53.8c0-34.9,23.2-53.2,52.8-53c13.6,0,26.5,6.4,32.3,16.4L409.9,226.7z M349.1,277.2
	c0,19.3,13.4,30.8,30,30.8c39.5,0,39.5-61.4,0-61.4C362.4,246.6,349.1,257.9,349.1,277.2z"/>
<path id="XMLID_201_" class="st0" d="M455.1,370.3V226.7h23.4l1.6,14c7.8-11.3,21.4-16.2,32.9-16.2c31.2,0,52,23.2,52,53
	c0,29.6-18.7,53-51.2,53c-10.7,0-26.5-3.3-33.7-14.4v54.2H455.1z M540,277.4c0-15.8-10.7-28.8-28.8-28.8
	c-18.1,0-28.8,12.9-28.8,28.8c0,15.8,11.7,28.8,28.8,28.8C528.3,306.2,540,293.3,540,277.4z"/>
<path id="XMLID_176_" class="st0" d="M605,286.3c1.6,12.5,12.5,21.6,30.2,21.6c9.2,0,21.4-3.5,27.1-9.5l16,15.8
	c-10.7,11.1-28.2,16.4-43.6,16.4c-34.9,0-55.7-21.6-55.7-54c0-30.8,21-53,53.8-53c33.9,0,55.1,21,51.2,62.7H605z M660,265.5
	c-1.6-13.2-11.9-19.7-26.3-19.7c-13.6,0-24.7,6.6-28.4,19.7H660z"/>
<path id="XMLID_5_" class="st1" d="M113.3,275.8c-13.5-2.1-27.4,2.1-39.1,12.3c-21.2,18.5-24.1,47-4,70.1
	c14.5,16.7,33.7,21.8,51.2,16.2c-3.5-6.1-5.6-13.1-6.2-20.5c-10.4,3.6-22,1.2-30.4-8.4c-11.6-13.3-8.9-30.5,3.4-41.3
	c8.2-7.1,18.6-9.6,28.1-6.6c-2-5.5-3.2-11.3-3.2-17.5C113.1,278.6,113.2,277.2,113.3,275.8z"/>
<path id="XMLID_2_" class="st0" d="M122.6,352.9c0,0-1.1-17.8,1.2-27c0-0.7,11.1,10.4,23.5,13.5l-0.1,10.6"/>
</svg>
